# xmcd CD database file
#
# Track frame offsets:
#	150
#	51827
#	103194
#	144792
#	191389
#	258286
#	313120
#
# Disc length: 4668 seconds
#
# Revision: 0
# Processed by: cddbd v1.5.2PL0 Copyright (c) Steve Scherf et al.
# Submitted via: CDex 1.81
#
DISCID=5a123a07
DTITLE=Muriel Grossmann - Golden rule
DYEAR=2018
DGENRE=Jazz
TTITLE0=Golden rule
TTITLE1=Core
TTITLE2=Promise
TTITLE3=Direction
TTITLE4=Traneing in
TTITLE5=Trane
TTITLE6=Light
EXTD=YEAR: 2018
EXTT0=
EXTT1=
EXTT2=
EXTT3=
EXTT4=
EXTT5=
EXTT6=
PLAYORDER=
